<?xml version="1.0" standalone="no"?>
<!DOCTYPE svg PUBLIC "-//W3C//DTD SVG 20010904//EN"
 "http://www.w3.org/TR/2001/REC-SVG-20010904/DTD/svg10.dtd">
<svg version="1.0" xmlns="http://www.w3.org/2000/svg"
 width="231.000000pt" height="238.000000pt" viewBox="0 0 231.000000 238.000000"
 preserveAspectRatio="xMidYMid meet">

<g transform="translate(0.000000,238.000000) scale(0.100000,-0.100000)"
fill="#000000" stroke="none">
<path d="M1088 2263 c45 -2 119 -2 165 0 45 1 8 3 -83 3 -91 0 -128 -2 -82 -3z"/>
<path d="M943 2253 c9 -2 25 -2 35 0 9 3 1 5 -18 5 -19 0 -27 -2 -17 -5z"/>
<path d="M1378 2253 c12 -2 30 -2 40 0 9 3 -1 5 -23 4 -22 0 -30 -2 -17 -4z"/>
<path d="M878 2243 c6 -2 18 -2 25 0 6 3 1 5 -13 5 -14 0 -19 -2 -12 -5z"/>
<path d="M1448 2243 c7 -3 16 -2 19 1 4 3 -2 6 -13 5 -11 0 -14 -3 -6 -6z"/>
<path d="M828 2233 c6 -2 18 -2 25 0 6 3 1 5 -13 5 -14 0 -19 -2 -12 -5z"/>
<path d="M788 2223 c7 -3 16 -2 19 1 4 3 -2 6 -13 5 -11 0 -14 -3 -6 -6z"/>
<path d="M680 2196 c-66 -23 -170 -73 -170 -81 0 -2 28 9 63 25 34 17 69 30
78 30 8 0 20 5 25 10 6 6 30 16 55 24 24 8 37 14 29 15 -8 0 -44 -10 -80 -23z"/>
<path d="M1055 2179 c-33 -3 21 -6 120 -6 175 0 183 4 20 9 -44 2 -107 0 -140
-3z"/>
<path d="M870 2155 c-73 -17 -34 -17 55 -1 45 9 57 14 35 14 -19 0 -60 -6 -90
-13z"/>
<path d="M1405 2159 c51 -10 92 -10 50 1 -16 4 -43 8 -60 8 -25 0 -24 -2 10
-9z"/>
<path d="M648 2143 c7 -3 16 -2 19 1 4 3 -2 6 -13 5 -11 0 -14 -3 -6 -6z"/>
<path d="M1498 2143 c6 -2 18 -2 25 0 6 3 1 5 -13 5 -14 0 -19 -2 -12 -5z"/>
<path d="M788 2133 c7 -3 16 -2 19 1 4 3 -2 6 -13 5 -11 0 -14 -3 -6 -6z"/>
<path d="M1548 2133 c7 -3 16 -2 19 1 4 3 -2 6 -13 5 -11 0 -14 -3 -6 -6z"/>
<path d="M670 2100 c-45 -25 -37 -25 25 0 28 10 41 19 30 19 -11 0 -36 -8 -55
-19z"/>
<path d="M1043 2090 c-107 -11 -251 -43 -308 -69 l-40 -19 76 1 c42 0 81 -3
88 -7 22 -14 -1 -26 -52 -26 -44 -1 -56 -5 -81 -30 -33 -33 -53 -37 -82 -15
-18 14 -17 16 16 19 8 0 15 8 15 16 0 8 4 21 9 28 12 19 -24 0 -46 -25 -76
-84 -15 -167 166 -228 116 -39 200 -47 415 -42 162 3 210 8 276 26 163 46 255
108 255 173 0 37 -70 114 -95 104 -9 -3 -14 -2 -11 3 3 5 -8 14 -24 20 -17 6
-44 16 -61 23 -27 10 -33 9 -45 -6 -12 -17 -14 -17 -28 -3 -9 9 -16 20 -16 24
0 11 -139 35 -195 33 -22 0 -62 1 -90 4 -27 2 -91 0 -142 -4z m327 -41 c0 -5
-9 -9 -20 -9 -19 0 -26 11 -14 23 8 8 34 -3 34 -14z m-330 -34 c0 -10 11 -15
35 -15 40 0 52 -29 13 -31 -128 -4 -183 0 -186 15 -3 13 7 16 53 16 40 0 57 4
61 15 4 8 10 15 15 15 5 0 9 -7 9 -15z m396 -43 c-3 -5 -28 -9 -55 -9 -43 -1
-51 1 -51 17 0 21 20 31 48 23 11 -2 23 0 27 7 5 8 12 5 22 -9 8 -12 12 -25 9
-29z m103 24 c6 -4 11 -3 11 2 0 7 40 9 68 3 1 -1 -2 -10 -8 -21 -7 -14 -18
-19 -34 -16 -12 2 -41 1 -64 -4 -37 -6 -42 -5 -42 11 0 11 -3 18 -7 18 -16 -3
-24 1 -19 10 6 10 77 8 95 -3z m-324 -6 c4 -6 13 -5 24 2 20 12 51 5 51 -12 0
-6 -27 -10 -65 -10 -51 0 -65 3 -65 15 0 17 45 21 55 5z m-358 -64 c-3 -9 -41
-12 -89 -7 -18 2 -6 20 15 23 36 5 78 -4 74 -16z m73 4 c0 -11 -4 -20 -10 -20
-5 0 -10 9 -10 20 0 11 5 20 10 20 6 0 10 -9 10 -20z m92 5 c9 4 19 2 23 -4 3
-6 3 -11 -2 -12 -4 0 -18 -2 -30 -3 -17 -2 -23 2 -23 18 0 15 3 17 8 8 5 -7
16 -10 24 -7z m-57 -4 c3 -5 1 -12 -5 -16 -5 -3 -10 1 -10 9 0 18 6 21 15 7z
m455 -31 c0 -5 -4 -10 -9 -10 -6 0 -13 5 -16 10 -3 6 1 10 9 10 9 0 16 -4 16
-10z m57 -3 c-5 -17 -37 -21 -37 -5 0 8 9 14 21 15 12 1 19 -3 16 -10z m53 3
c0 -5 -2 -10 -4 -10 -2 0 -12 -3 -20 -6 -12 -5 -15 -2 -10 10 7 17 34 22 34 6z
m40 -5 c0 -8 -4 -15 -10 -15 -5 0 -10 7 -10 15 0 8 5 15 10 15 6 0 10 -7 10
-15z m-510 -5 c0 -5 -2 -10 -4 -10 -3 0 -8 5 -11 10 -3 6 -1 10 4 10 6 0 11
-4 11 -10z m50 0 c0 -5 -4 -10 -10 -10 -5 0 -10 5 -10 10 0 6 5 10 10 10 6 0
10 -4 10 -10z m260 0 c0 -5 -4 -10 -10 -10 -5 0 -10 5 -10 10 0 6 5 10 10 10
6 0 10 -4 10 -10z m350 0 c0 -5 -4 -10 -10 -10 -5 0 -10 5 -10 10 0 6 5 10 10
10 6 0 10 -4 10 -10z m-935 -130 c3 -5 1 -10 -4 -10 -6 0 -11 5 -11 10 0 6 2
10 4 10 3 0 8 -4 11 -10z m145 0 c0 -5 -4 -10 -10 -10 -5 0 -10 5 -10 10 0 6
5 10 10 10 6 0 10 -4 10 -10z m210 -2 c0 -4 -20 -8 -45 -8 -25 0 -45 5 -45 10
0 6 20 9 45 8 25 0 45 -5 45 -10z m150 3 c0 -10 -118 -23 -131 -15 -5 3 -7 9
-4 14 6 10 135 11 135 1z m53 -28 c-7 -2 -21 -2 -30 0 -10 3 -4 5 12 5 17 0
24 -2 18 -5z"/>
<path d="M434 2058 c-43 -49 -46 -61 -6 -23 23 21 42 40 42 42 0 10 -19 0 -36
-19z"/>
<path d="M579 2057 c-89 -55 -139 -114 -139 -166 0 -26 -7 -44 -21 -57 -12
-10 -23 -17 -24 -14 -2 3 -7 2 -11 -2 -4 -5 7 -8 24 -8 25 0 30 3 26 18 -4 11
1 9 16 -8 17 -20 20 -21 14 -5 -5 11 -9 41 -9 66 0 59 32 103 117 158 65 42
70 56 7 18z"/>
<path d="M1488 2053 c7 -3 16 -2 19 1 4 3 -2 6 -13 5 -11 0 -14 -3 -6 -6z"/>
<path d="M369 1958 c-12 -27 -14 -162 -14 -749 l0 -716 30 -42 c181 -263 794
-358 1285 -201 131 42 275 151 275 208 0 17 5 27 15 27 8 0 18 5 22 10 8 11
11 971 3 964 -2 -3 -6 -105 -7 -227 -1 -159 -5 -222 -13 -222 -18 0 -26 12
-16 24 4 6 4 26 -1 45 l-9 33 -20 -20 c-10 -12 -19 -29 -18 -39 0 -16 1 -16 9
2 7 17 9 15 9 -12 1 -18 -3 -33 -8 -33 -12 0 -22 -102 -11 -115 13 -15 -14
-40 -30 -30 -6 4 -22 -3 -35 -15 -20 -19 -22 -26 -13 -46 8 -17 8 -27 -1 -38
-17 -21 -41 -9 -41 20 0 13 -3 24 -6 24 -15 0 -44 -22 -44 -34 0 -8 -12 -13
-27 -13 -16 -1 -59 -10 -98 -22 -152 -47 -201 -53 -430 -54 -193 0 -232 3
-319 22 -166 38 -319 107 -373 169 l-32 37 -1 138 c0 110 3 142 15 153 13 14
15 14 15 0 0 -29 160 -121 160 -93 0 7 7 4 15 -6 15 -21 103 -51 210 -73 104
-21 341 -29 470 -15 123 14 295 50 295 63 0 4 -4 8 -10 8 -5 0 -10 9 -10 21 0
15 -5 19 -16 15 -9 -3 -12 -2 -9 5 4 5 15 7 26 4 28 -9 59 3 52 21 -3 8 1 14
11 14 17 0 20 -9 10 -34 -3 -8 -12 -12 -20 -9 -21 8 -17 -5 6 -17 14 -7 26 -8
38 -1 9 6 12 11 5 11 -7 0 -10 6 -7 14 4 11 12 13 31 5 25 -9 51 2 118 49 19
13 19 14 -5 7 -13 -4 -30 -14 -38 -21 -17 -18 -36 -18 -29 -1 3 7 -2 23 -12
35 -12 16 -19 19 -31 11 -13 -9 -12 -10 3 -5 9 3 17 1 17 -4 0 -10 -32 -19
-60 -18 -8 0 -55 -11 -105 -25 -49 -14 -116 -31 -147 -37 -32 -6 -58 -16 -58
-21 0 -5 6 -9 13 -9 8 0 7 -3 -3 -9 -18 -12 -33 -3 -26 15 4 11 -1 13 -19 8
-38 -9 -259 -10 -358 -1 -68 6 -87 5 -85 -4 2 -7 -6 -15 -16 -17 -15 -3 -18 0
-14 16 5 18 -3 22 -71 38 -42 9 -113 34 -157 54 -62 28 -81 34 -80 22 0 -8 -5
-17 -12 -20 -10 -3 -13 3 -10 19 2 17 -8 33 -35 58 -63 57 -67 72 -67 246 0
85 3 155 6 155 3 0 20 -11 37 -24 33 -25 198 -106 216 -106 6 0 8 7 5 15 -5
11 1 15 20 15 23 0 25 -3 16 -19 -8 -17 -5 -21 23 -30 47 -15 141 -29 240 -37
69 -5 87 -4 87 7 0 10 3 10 12 1 18 -18 192 -16 207 2 9 11 6 14 -14 14 -13 0
-22 -4 -19 -9 3 -5 0 -9 -7 -9 -8 0 -9 10 -5 31 3 17 6 35 6 40 0 5 13 9 29 9
25 0 28 -3 23 -27 -5 -31 5 -26 22 9 7 14 22 24 40 26 25 3 27 1 21 -20 -5
-17 -4 -19 4 -8 8 12 12 10 19 -10 8 -20 6 -26 -7 -28 -31 -7 -36 -23 -6 -17
17 2 55 9 85 14 59 10 116 29 108 36 -2 2 -22 -2 -43 -9 -22 -7 -56 -16 -75
-20 -33 -6 -36 -4 -46 29 -10 32 -9 35 9 35 22 0 137 39 151 51 5 4 -25 -1
-65 -11 -41 -11 -119 -25 -174 -31 -122 -14 -126 -15 -120 -31 3 -8 -1 -22 -8
-32 -19 -26 -47 -14 -47 19 0 14 -1 25 -2 25 -2 0 -66 5 -143 10 -101 6 -173
18 -259 40 -109 28 -120 30 -136 15 -16 -15 -18 -14 -23 4 -3 11 -1 21 4 23 5
2 -11 13 -34 26 -23 13 -33 16 -22 7 19 -15 19 -17 2 -26 -12 -7 -16 -17 -11
-31 4 -15 2 -19 -7 -16 -8 3 -15 14 -17 26 -2 12 -10 22 -17 22 -41 0 -95 55
-95 97 0 9 -3 13 -7 9 -4 -4 -8 -15 -8 -24 0 -11 -8 -17 -25 -17 -24 0 -25 2
-28 83 -2 45 2 98 8 118 15 46 7 55 -11 12z m51 -306 c0 -16 -32 -12 -37 5 -3
7 4 11 16 10 12 -1 21 -7 21 -15z m506 -76 c7 -19 -14 -58 -28 -54 -23 8 -32
36 -19 52 17 20 40 21 47 2z m-506 -21 c0 -28 -24 -34 -34 -9 -10 26 -7 34 14
34 15 0 20 -7 20 -25z m580 16 c0 -5 -6 -12 -12 -15 -10 -5 -10 -7 0 -12 20
-9 14 -26 -10 -22 -16 2 -22 10 -23 31 0 22 4 27 22 27 13 0 23 -4 23 -9z m77
-24 c10 4 14 2 11 -7 -2 -7 -14 -15 -26 -17 -16 -2 -22 2 -22 15 0 24 14 38
18 18 2 -9 9 -13 19 -9z m87 7 c9 -22 -1 -34 -30 -34 -28 0 -31 17 -6 36 22
18 29 17 36 -2z m-334 -9 c0 -8 -6 -15 -14 -15 -17 0 -28 14 -19 24 12 12 33
6 33 -9z m-410 -320 c0 -18 -5 -25 -20 -25 -23 0 -24 3 -8 30 17 27 28 25 28
-5z m1150 -138 c0 -20 -25 1 -28 24 -2 23 -2 23 13 5 8 -11 15 -24 15 -29z
m-90 18 c11 -13 10 -14 -4 -9 -9 3 -16 10 -16 15 0 13 6 11 20 -6z m-1060 -5
c0 -5 -7 -10 -15 -10 -8 0 -15 5 -15 10 0 6 7 10 15 10 8 0 15 -4 15 -10z
m897 -6 c-3 -3 -12 -4 -19 -1 -8 3 -5 6 6 6 11 1 17 -2 13 -5z m-240 -70 c-3
-3 -12 -4 -19 -1 -8 3 -5 6 6 6 11 1 17 -2 13 -5z m80 0 c-3 -3 -12 -4 -19 -1
-8 3 -5 6 6 6 11 1 17 -2 13 -5z m823 -140 c0 -9 -7 -14 -17 -12 -25 5 -28 28
-4 28 12 0 21 -6 21 -16z m-70 -94 c0 -30 -6 -36 -26 -22 -14 9 -24 38 -17 46
4 3 15 6 25 6 13 0 18 -8 18 -30z m68 0 c-2 -21 -7 -30 -20 -30 -10 0 -18 5
-18 10 0 6 5 10 11 10 8 0 9 4 0 13 -12 15 -5 27 16 27 9 0 13 -10 11 -30z
m-1560 2 c2 -7 -3 -12 -12 -12 -9 0 -16 7 -16 16 0 17 22 14 28 -4z m80 6 c-6
-18 -28 -21 -28 -4 0 9 7 16 16 16 9 0 14 -5 12 -12z m77 -11 c0 -26 -20 -25
-23 2 -3 16 1 22 10 19 7 -3 13 -12 13 -21z m-49 -57 c68 -40 187 -81 334
-117 62 -15 117 -18 315 -18 216 0 249 2 329 23 87 22 249 83 328 123 63 32
72 18 65 -107 -3 -63 -11 -112 -21 -131 -36 -70 -156 -140 -320 -188 -235 -67
-642 -55 -858 26 -32 12 -58 25 -58 30 0 5 -6 9 -13 9 -7 0 -38 16 -70 36 -74
46 -104 97 -108 179 -3 76 0 175 5 175 2 0 35 -18 72 -40z m1371 -276 c10 -28
-13 -37 -25 -9 -10 21 -9 25 4 25 8 0 17 -7 21 -16z"/>
<path d="M1983 1635 c0 -38 2 -53 4 -32 2 20 2 52 0 70 -2 17 -4 1 -4 -38z"/>
<path d="M1770 1615 c-14 -8 -20 -14 -14 -15 5 0 19 7 30 15 24 18 16 19 -16
0z"/>
<path d="M1530 1591 c-8 -6 -17 -8 -21 -5 -8 5 -21 -38 -13 -45 3 -3 15 7 27
21 12 15 31 29 42 31 l20 5 -20 1 c-11 0 -27 -3 -35 -8z"/>
<path d="M1360 1553 c0 -4 5 -15 10 -23 8 -13 10 -13 10 2 0 9 -4 20 -10 23
-5 3 -10 3 -10 -2z"/>
<path d="M1981 1514 c0 -11 3 -14 6 -6 3 7 2 16 -1 19 -3 4 -6 -2 -5 -13z"/>
<path d="M1345 1510 c-3 -5 -1 -10 4 -10 6 0 11 5 11 10 0 6 -2 10 -4 10 -3 0
-8 -4 -11 -10z"/>
<path d="M1702 1380 c0 -14 2 -19 5 -12 2 6 2 18 0 25 -3 6 -5 1 -5 -13z"/>
<path d="M1799 1360 c-3 -18 -12 -27 -34 -31 l-30 -7 33 -1 c34 -1 47 14 40
46 -4 14 -6 12 -9 -7z"/>
<path d="M1947 1153 c-4 -3 -7 -11 -7 -17 0 -6 5 -5 12 2 6 6 9 14 7 17 -3 3
-9 2 -12 -2z"/>
<path d="M1728 988 c-30 -24 -31 -56 -4 -83 44 -44 85 -23 86 42 0 46 -46 69
-82 41z"/>
</g>
</svg>
