<?xml version="1.0" standalone="no"?>
<!DOCTYPE svg PUBLIC "-//W3C//DTD SVG 20010904//EN"
 "http://www.w3.org/TR/2001/REC-SVG-20010904/DTD/svg10.dtd">
<svg version="1.0" xmlns="http://www.w3.org/2000/svg"
 width="631.000000pt" height="359.000000pt" viewBox="0 0 631.000000 359.000000"
 preserveAspectRatio="xMidYMid meet">

<g transform="translate(0.000000,359.000000) scale(0.100000,-0.100000)"
fill="#000000" stroke="none">
<path d="M0 3580 c0 -7 1058 -10 3155 -10 2097 0 3155 3 3155 10 0 7 -1058 10
-3155 10 -2097 0 -3155 -3 -3155 -10z"/>
<path d="M30 2370 l0 -1140 3120 0 3120 0 0 1140 0 1140 -3120 0 -3120 0 0
-1140z m5020 909 c68 -15 122 -57 154 -120 25 -51 26 -60 26 -213 0 -182 -11
-221 -78 -276 -73 -60 -81 -61 -608 -58 -445 3 -481 4 -514 22 -77 40 -117 96
-129 175 -6 43 -8 46 -39 49 -18 2 -57 -4 -88 -13 -68 -20 -116 -65 -174 -166
-24 -41 -61 -100 -83 -132 -22 -31 -38 -59 -36 -61 2 -2 49 -15 104 -29 199
-49 314 -111 510 -276 130 -110 208 -156 319 -188 81 -23 311 -51 339 -40 8 3
16 24 19 52 9 73 53 134 123 170 l59 30 448 3 c282 2 470 -1 506 -8 69 -12
123 -47 159 -102 27 -40 28 -46 31 -207 4 -195 -3 -226 -62 -285 -75 -76 -77
-76 -595 -76 -294 0 -470 4 -496 11 -94 25 -162 104 -174 202 l-6 52 -55 3
c-107 5 -275 34 -364 62 -118 38 -231 104 -359 212 -141 117 -206 161 -291
197 -96 40 -254 71 -398 78 l-118 6 0 -47 c0 -74 -19 -131 -58 -177 -69 -81
-54 -79 -601 -79 -334 0 -495 4 -522 11 -51 16 -105 62 -132 112 -19 37 -22
61 -25 191 -3 122 -1 156 13 193 22 57 67 108 119 136 41 22 46 22 536 22 488
0 496 0 535 -22 56 -30 93 -71 114 -129 17 -45 22 -49 48 -46 51 7 122 44 157
82 18 21 53 71 76 111 116 202 193 267 341 290 113 17 119 21 119 72 0 88 74
178 167 203 61 16 909 19 983 3z"/>
<path d="M4075 3105 c-24 -23 -25 -29 -25 -155 0 -126 1 -132 25 -155 l24 -25
464 0 c443 0 466 1 488 19 22 18 24 27 27 136 4 131 0 157 -28 185 -19 19 -35
20 -485 20 l-466 0 -24 -25z"/>
<path d="M2020 2540 c-18 -18 -20 -33 -20 -155 0 -131 1 -137 25 -160 l24 -25
459 0 c567 0 512 -19 512 181 0 126 -2 141 -20 159 -19 19 -33 20 -490 20
-457 0 -471 -1 -490 -20z"/>
<path d="M4952 2030 c-21 -20 -22 -29 -22 -160 0 -130 1 -141 22 -160 21 -20
33 -20 485 -20 l464 0 24 25 c24 23 25 29 25 153 0 113 -2 133 -19 153 l-19
24 -469 3 c-462 3 -469 2 -491 -18z"/>
<path d="M2157 1003 c-12 -11 -8 -88 5 -101 7 -7 26 -12 43 -12 49 0 55 -14
55 -126 0 -105 -7 -127 -31 -97 -23 26 -91 53 -139 53 -151 0 -239 -106 -256
-310 -12 -148 34 -280 118 -337 85 -56 193 -53 262 7 43 38 56 38 56 0 0 -38
15 -42 140 -38 l95 3 0 55 c0 51 -2 55 -25 58 -51 8 -50 -4 -50 438 l0 414
-133 0 c-74 0 -137 -3 -140 -7z m20 -423 c7 0 28 -14 48 -31 l35 -31 0 -138
c0 -121 -2 -140 -20 -162 -27 -35 -72 -52 -123 -45 -78 11 -112 83 -105 222 5
99 29 153 78 178 19 10 44 15 55 12 11 -2 25 -5 32 -5z"/>
<path d="M142 888 c3 -52 3 -52 43 -60 21 -5 43 -14 47 -21 12 -19 10 -605 -2
-628 -7 -11 -21 -19 -38 -19 -45 0 -54 -12 -50 -66 l3 -49 180 0 180 0 3 52
c3 57 10 51 -73 68 l-25 5 0 235 c0 129 3 235 8 235 4 -1 50 -74 103 -163 175
-294 241 -402 257 -420 13 -15 29 -17 96 -15 l81 3 3 386 2 387 48 8 47 9 3
53 3 52 -186 0 -186 0 3 -52 c3 -49 5 -53 34 -59 17 -3 36 -9 42 -13 9 -5 12
-73 12 -237 0 -127 -4 -228 -8 -225 -5 3 -87 136 -183 296 l-174 290 -138 0
-138 0 3 -52z"/>
<path d="M3747 934 c-9 -9 -9 -76 1 -90 4 -6 25 -14 46 -17 22 -4 43 -12 48
-19 4 -7 8 -151 8 -320 0 -294 -1 -308 -19 -318 -11 -5 -30 -10 -43 -10 -35 0
-48 -18 -48 -67 0 -54 1 -55 205 -51 l160 3 3 52 c3 50 2 53 -25 58 -58 12
-58 13 -58 136 l0 114 85 3 c66 2 93 -2 119 -15 59 -31 74 -61 81 -165 6 -96
14 -121 48 -151 22 -21 131 -42 167 -33 22 6 25 11 25 56 0 39 -4 50 -19 55
-34 10 -44 34 -51 120 -8 98 -38 155 -95 182 -19 9 -35 20 -35 23 0 4 18 20
40 35 53 36 80 95 80 171 0 107 -52 183 -155 230 -34 16 -76 19 -300 22 -143
2 -264 0 -268 -4z m493 -151 c77 -45 79 -177 2 -217 -30 -15 -189 -25 -210
-12 -17 10 -17 242 1 250 26 12 177 -3 207 -21z"/>
<path d="M4622 888 l3 -51 45 -11 45 -11 3 -322 2 -323 -22 -4 c-13 -3 -34 -7
-48 -8 -23 -3 -25 -7 -25 -58 l0 -55 345 0 345 0 0 120 0 120 -60 0 -60 0 -6
-43 c-3 -23 -10 -47 -16 -53 -6 -6 -61 -9 -139 -7 l-129 3 -3 127 -3 127 143
3 143 3 3 68 3 67 -146 0 -145 0 0 110 0 110 138 0 139 0 9 -47 9 -48 60 0 60
0 3 118 3 117 -351 0 -351 0 3 -52z"/>
<path d="M5429 938 c-1 -6 -1 -83 0 -94 0 -6 19 -14 41 -18 l40 -6 0 -325 0
-325 -27 -5 c-50 -11 -58 -20 -57 -62 1 -22 4 -45 8 -52 9 -14 351 -15 451 -1
92 13 162 49 219 110 63 68 86 123 99 241 28 250 -41 423 -201 501 l-66 33
-253 3 c-139 2 -253 2 -254 0z m487 -157 c79 -41 114 -130 114 -291 0 -230
-72 -316 -261 -308 l-74 3 -3 300 c-1 165 0 306 3 314 8 21 171 9 221 -18z"/>
<path d="M1319 707 c-84 -32 -123 -67 -170 -157 -19 -37 -24 -64 -27 -155 -3
-94 -1 -118 17 -166 29 -76 87 -140 153 -170 72 -32 202 -33 269 -2 61 27 116
84 148 152 23 50 26 68 26 171 0 129 -14 174 -75 243 -59 67 -109 89 -213 94
-62 2 -104 -1 -128 -10z m178 -142 c14 -9 34 -37 45 -62 29 -65 23 -221 -10
-274 -56 -92 -187 -75 -224 29 -7 20 -12 78 -12 127 0 72 5 98 22 131 36 70
114 91 179 49z"/>
<path d="M2768 705 c-63 -23 -116 -74 -151 -144 -27 -56 -32 -77 -35 -161 -8
-201 66 -316 232 -357 58 -14 79 -15 142 -5 72 11 184 55 184 71 0 15 -41 101
-48 101 -4 0 -31 -9 -60 -20 -70 -27 -156 -27 -200 0 -35 22 -78 100 -68 126
4 11 41 14 202 14 l196 0 -4 103 c-3 89 -7 108 -31 149 -34 58 -95 111 -146
126 -51 16 -167 14 -213 -3z m158 -131 c24 -11 38 -28 50 -60 27 -71 21 -75
-103 -72 l-108 3 3 25 c4 45 25 82 56 101 38 23 58 24 102 3z"/>
<path d="M3300 420 l0 -70 168 2 167 3 3 68 3 67 -171 0 -170 0 0 -70z"/>
</g>
</svg>
