<?xml version="1.0" standalone="no"?>
<!DOCTYPE svg PUBLIC "-//W3C//DTD SVG 20010904//EN"
 "http://www.w3.org/TR/2001/REC-SVG-20010904/DTD/svg10.dtd">
<svg version="1.0" xmlns="http://www.w3.org/2000/svg"
 width="199.000000pt" height="175.000000pt" viewBox="0 0 199.000000 175.000000"
 preserveAspectRatio="xMidYMid meet">

<g transform="translate(0.000000,175.000000) scale(0.100000,-0.100000)"
fill="#000000" stroke="none">
<path d="M715 1567 c-27 -7 -63 -20 -80 -28 -28 -14 -30 -18 -29 -70 1 -75 34
-143 96 -201 l52 -48 -41 -35 c-35 -30 -44 -45 -56 -100 -11 -48 -25 -76 -50
-104 -63 -70 -72 -147 -24 -220 12 -20 32 -65 42 -101 20 -69 50 -125 81 -151
24 -20 136 -84 253 -146 58 -30 123 -30 179 -1 146 78 264 152 286 181 13 17
34 66 47 107 12 41 30 87 41 102 49 70 38 172 -27 241 -22 24 -35 47 -35 65
-1 42 -34 106 -71 135 l-33 25 62 66 c66 71 97 142 90 208 -4 40 -41 61 -141
78 -122 21 -240 -11 -278 -75 -12 -19 -25 -35 -29 -35 -5 0 -17 14 -27 31 -41
70 -189 106 -308 76z m225 -59 c38 -16 52 -30 66 -60 20 -44 11 -90 -17 -96
-9 -2 -46 16 -82 38 -65 41 -118 53 -63 14 53 -36 106 -86 106 -99 0 -20 -47
-54 -85 -61 -45 -8 -132 35 -165 83 -28 40 -50 104 -50 144 0 29 8 33 95 54
66 15 136 9 195 -17z m418 18 c90 -16 105 -34 90 -109 -20 -91 -138 -187 -214
-172 -43 8 -89 46 -81 68 3 8 31 34 61 57 92 67 69 77 -32 13 -29 -18 -59 -33
-67 -33 -35 0 -37 86 -4 126 38 46 145 67 247 50z"/>
</g>
</svg>
